#!OML:ASF F:\VICON\USERDATA\INSTALL\rory3\rory3.ASF
:FULLY-SPECIFIED
:DEGREES
326
root 2.96748 16.744 -0.157303 14.589 5.50662 10.8412
lowerback -5.50483 1.12188 -0.870231
upperback -2.27042 1.65378 -7.04807
thorax 0.927769 0.823133 -6.75005
lowerneck -3.20534 14.5422 4.81537
upperneck 47.6491 24.1487 -1.39875
head 20.1707 10.4703 2.61674
rclavicle 1.8487e-014 -6.2816e-014
rhumerus -36.4926 4.15582 -93.4489
rradius 42.6408
rwrist -38.5278
rhand -8.37324 -50.8304
rfingers 7.12502
rthumb 17.5497 -80.0583
lclavicle 1.8487e-014 -6.2816e-014
lhumerus -28.1629 -19.7775 81.3971
lradius 41.242
lwrist 74.4803
lhand -39.2669 -12.5284
lfingers 7.12502
lthumb -12.261 17.0922
rfemur -49.8411 23.895 -5.73728
rtibia 73.7762
rfoot 3.58527 8.41619
rtoes -39.7891
lfemur -31.9599 -6.78594 -36.169
ltibia 38.5837
lfoot -16.5685 10.4819
ltoes 4.43562
327
root 2.96794 16.7319 -0.161622 15.0683 4.8874 10.6349
lowerback -6.01194 1.32425 -0.798947
upperback -2.45894 1.93349 -7.02566
thorax 1.04814 0.96267 -6.74056
lowerneck -3.17953 14.5376 4.82054
upperneck 47.6571 24.1614 -1.4391
head 20.1833 10.4715 2.59893
rclavicle -3.23025e-014 8.66701e-014
rhumerus -36.4767 4.18597 -93.4421
rradius 42.6208
rwrist -38.5385
rhand -8.35633 -50.7754
rfingers 7.12502
rthumb 17.566 -80.0018
lclavicle -3.23025e-014 8.66701e-014
lhumerus -28.2439 -19.7511 81.4043
lradius 41.3225
lwrist 74.5103
lhand -39.2721 -12.5486
lfingers 7.12502
lthumb -12.266 17.0717
rfemur -50.8701 24.0369 -6.08217
rtibia 73.8222
rfoot 3.72357 8.67059
rtoes -40.0832
lfemur -32.6789 -6.46713 -36.0365
ltibia 38.6246
lfoot -16.5092 10.6384
ltoes 4.30939
328
root 2.96925 16.7323 -0.160029 15.0918 4.91613 10.5523
lowerback -6.08387 1.33606 -0.671958
upperback -2.47206 1.94469 -7.01309
thorax 1.07959 0.968143 -6.79835
lowerneck -3.04784 14.5032 4.93535
upperneck 47.6358 24.152 -1.58246
head 20.1963 10.4763 2.50566
rclavicle 2.01269e-014 -3.61788e-014
rhumerus -36.4479 4.16375 -93.4515
rradius 42.5401
rwrist -38.5375
rhand -8.51717 -50.6855
rfingers 7.12502
rthumb 17.4112 -79.9257
lclavicle 2.01269e-014 -3.61788e-014
lhumerus -28.2843 -19.7968 81.412
lradius 41.3244
lwrist 74.5484
lhand -39.1754 -12.4422
lfingers 7.12502
lthumb -12.1728 17.1836
rfemur -50.8821 23.9937 -5.99821
rtibia 73.8223
rfoot 3.91256 8.61487
rtoes -39.2053
lfemur -32.7076 -6.49508 -35.9456
ltibia 38.6676
lfoot -16.5995 10.6041
ltoes 4.51689
329
root 2.97017 16.7338 -0.1605 15.079 4.92649 10.5652
lowerback -6.07183 1.33549 -0.662347
upperback -2.48312 1.94227 -7.01867
thorax 1.0616 0.966523 -6.81045
lowerneck -2.88562 14.4724 5.03697
upperneck 47.506 24.1591 -1.80058
head 20.1414 10.4858 2.37142
rclavicle -2.98177e-014 3.33958e-014
rhumerus -36.4583 4.18084 -93.4581
rradius 42.5395
rwrist -38.5403
rhand -8.32141 -50.9578
rfingers 7.12502
rthumb 17.5996 -80.1812
lclavicle -2.98177e-014 3.33958e-014
lhumerus -28.1992 -19.9311 81.4236
lradius 41.1908
lwrist 74.6389
lhand -38.836 -12.5377
lfingers 7.12502
lthumb -11.8455 17.1072
rfemur -50.9015 23.9842 -6.02219
rtibia 73.8432
rfoot 4.11228 8.5033
rtoes -38.1264
lfemur -32.7301 -6.4993 -35.9631
ltibia 38.7902
lfoot -16.751 10.5671
ltoes 4.88844
330
root 2.96432 16.7304 -0.164304 15.1016 4.86572 10.5032
lowerback -6.04445 1.35668 -0.657177
upperback -2.50702 1.96711 -7.00005
thorax 1.02393 0.978182 -6.7923
lowerneck -2.82881 14.4635 5.06169
upperneck 47.3811 24.1719 -1.93017
head 20.0778 10.4902 2.29791
rclavicle -1.82882e-014 1.66979e-014
rhumerus -36.4204 4.21558 -93.4788
rradius 42.5008
rwrist -38.5933
rhand -8.38694 -50.9208
rfingers 7.12502
rthumb 17.5365 -80.1498
lclavicle -1.82882e-014 1.66979e-014
lhumerus -28.1164 -19.9479 81.4005
lradius 41.105
lwrist 74.6434
lhand -38.4046 -12.6077
lfingers 7.12502
lthumb -11.4294 17.0607
rfemur -51.0446 24.0453 -6.00403
rtibia 73.8397
rfoot 4.18433 8.40426
rtoes -37.7367
lfemur -32.8383 -6.43407 -35.8787
ltibia 38.8222
lfoot -16.6953 10.5796
ltoes 4.82472
331
root 2.95996 16.7307 -0.165158 15.1037 4.7791 10.4825
lowerback -5.97039 1.40209 -0.657977
upperback -2.58278 2.0202 -7.02261
thorax 0.910825 1.0025 -6.81458
lowerneck -2.68727 14.4364 5.11502
upperneck 47.276 24.1151 -1.97765
head 19.9838 10.4874 2.23472
rclavicle -2.72335e-014 6.52014e-014
rhumerus -36.5182 4.10651 -93.5075
rradius 42.462
rwrist -38.5894
rhand -8.79223 -50.6297
rfingers 7.12502
rthumb 17.1464 -79.8932
lclavicle -2.72335e-014 6.52014e-014
lhumerus -28.3116 -19.8917 81.3809
lradius 41.2137
lwrist 74.4973
lhand -38.1181 -12.6568
lfingers 7.12502
lthumb -11.1532 17.0268
rfemur -51.1146 24.1549 -6.04232
rtibia 73.7993
rfoot 4.29268 8.3892
rtoes -37.516
lfemur -32.8978 -6.36864 -35.8474
ltibia 38.8198
lfoot -16.6623 10.6101
ltoes 4.78913
332
root 2.96554 16.7416 -0.156736 15.0669 4.79799 10.5228
lowerback -5.94435 1.41293 -0.609181
upperback -2.66365 2.02675 -7.06615
thorax 0.816257 1.00327 -6.89085
lowerneck -2.56294 14.4339 5.1202
upperneck 47.2429 24.0676 -1.90468
head 19.9043 10.4908 2.23833
rclavicle -1.14798e-014 4.73108e-014
rhumerus -36.7366 3.97421 -93.5292
rradius 42.4634
rwrist -38.5225
rhand -8.95271 -50.5468
rfingers 7.12502
rthumb 16.992 -79.8235
lclavicle -1.14798e-014 4.73108e-014
lhumerus -28.6158 -19.8704 81.4127
lradius 41.2942
lwrist 74.2879
lhand -38.043 -12.6548
lfingers 7.12502
lthumb -11.0807 17.0327
rfemur -50.9381 24.1611 -6.06905
rtibia 73.7192
rfoot 4.27838 8.44757
rtoes -37.6371
lfemur -32.8155 -6.42805 -35.8859
ltibia 38.782
lfoot -16.8096 10.4948
ltoes 5.96397
333
root 2.96979 16.7467 -0.151529 15.0254 4.83744 10.5042
lowerback -5.92666 1.40817 -0.523039
upperback -2.6941 2.01311 -7.0664
thorax 0.776064 0.994968 -6.94272
lowerneck -2.55801 14.4742 5.12279
upperneck 47.3253 24.1087 -1.80542
head 19.9383 10.5152 2.29478
rclavicle -1.67973e-014 3.1408e-014
rhumerus -36.802 3.99054 -93.5452
rradius 42.4027
rwrist -38.5423
rhand -8.92527 -50.4656
rfingers 7.12502
rthumb 17.0184 -79.7401
lclavicle -1.67973e-014 3.1408e-014
lhumerus -28.6853 -19.8515 81.4564
lradius 41.2032
lwrist 74.1279
lhand -38.1794 -12.5665
lfingers 7.12502
lthumb -11.2123 17.1139
rfemur -50.7864 24.0979 -5.97842
rtibia 73.6554
rfoot 3.77993 8.8201
rtoes -39.5836
lfemur -32.6335 -6.49661 -35.8552
ltibia 38.5528
lfoot -16.8073 10.3511
ltoes 6.92311
334
root 2.96943 16.7409 -0.151548 14.9245 4.66603 10.5577
lowerback -5.82903 1.46376 -0.589404
upperback -2.67427 2.08811 -7.08753
thorax 0.749469 1.03306 -6.92346
lowerneck -2.57128 14.501 5.14444
upperneck 47.3673 24.153 -1.78658
head 19.9746 10.5348 2.31442
rclavicle -9.98893e-015 -3.02153e-014
rhumerus -36.7919 3.99492 -93.5257
rradius 42.4032
rwrist -38.5981
rhand -9.01688 -50.3229
rfingers 7.12502
rthumb 16.9302 -79.605
lclavicle -9.98893e-015 -3.02153e-014
lhumerus -28.6244 -19.8561 81.4801
lradius 41.0833
lwrist 74.0241
lhand -37.9709 -12.9054
lfingers 7.12502
lthumb -11.0112 16.7858
rfemur -50.7987 24.2281 -6.05562
rtibia 73.6839
rfoot 3.39019 9.11247
rtoes -40.8852
lfemur -32.4632 -6.36345 -35.9757
ltibia 38.4976
lfoot -16.7382 10.5176
ltoes 5.71272
335
root 2.96682 16.7632 -0.123933 14.0736 6.08902 11.0588
lowerback -5.35367 0.984118 -0.872951
upperback -2.1659 1.46979 -7.09005
thorax 0.932034 0.732048 -6.8072
lowerneck -2.6324 14.5109 5.11203
upperneck 47.2999 24.172 -1.81745
head 19.9453 10.5346 2.31013
rclavicle 6.31141e-015 6.75868e-014
rhumerus -36.7452 3.92132 -93.449
rradius 42.5129
rwrist -38.5834
rhand -9.20305 -50.2052
rfingers 7.12502
rthumb 16.751 -79.5026
lclavicle 6.31141e-015 6.75868e-014
lhumerus -28.581 -19.8864 81.5057
lradius 41.1188
lwrist 73.9854
lhand -37.8474 -13.5541
lfingers 7.12502
lthumb -10.8921 16.1434
rfemur -48.6062 23.6929 -5.34093
rtibia 73.6112
rfoot 2.92958 8.60663
rtoes -40.9371
lfemur -30.9338 -7.13569 -36.32
ltibia 38.3492
lfoot -16.7812 10.3303
ltoes 4.39644
